<?xml version="1.0" encoding="iso-8859-1"?>
<!-- Generator: Adobe Illustrator 16.0.0, SVG Export Plug-In . SVG Version: 6.00 Build 0)  -->
<!DOCTYPE svg PUBLIC "-//W3C//DTD SVG 1.1//EN" "http://www.w3.org/Graphics/SVG/1.1/DTD/svg11.dtd">
<svg version="1.1" id="Capa_1" xmlns="http://www.w3.org/2000/svg" xmlns:xlink="http://www.w3.org/1999/xlink" x="0px" y="0px"
	 width="528.471px" height="528.471px" viewBox="0 0 528.471 528.471" style="enable-background:new 0 0 528.471 528.471;"
	 xml:space="preserve">
<g>
	<g>
		<path d="M108.351,136.791h-2.326l-88.893,36.965C9.329,177,3.004,186.482,3.004,194.931v315.18c0,8.448,6.852,15.3,15.3,15.3
			h89.566c-1.435-3.455-2.197-7.188-2.194-11.16l0.245-361.016C105.924,148.214,106.839,142.474,108.351,136.791z"/>
		<path d="M126.867,525.411c2.573,1.906,5.774,3.06,9.299,3.06c0.034,0,0.067,0,0.101,0l325.917-1.717
			c8.448-0.055,16.169-6.539,17.24-14.92l45.918-359.29c1.071-8.381-4.908-15.753-13.359-15.753h-261.12h-0.392
			c-8.449,0-11.558-5.162-6.94-12.24l43.287-65.777c4.617-7.078,2.625-16.561-4.449-21.185L228.654,2.497
			C226.069,0.808,223.159,0,220.279,0c-4.997,0-9.896,2.371-12.843,6.848l-77.794,118.189c-2.056,3.127-3.917,7.329-5.383,11.753
			c-1.839,5.566-3.035,11.5-3.039,16.206l-0.245,360.768C120.973,518.651,123.302,522.773,126.867,525.411z"/>
	</g>
</g>
<g>
</g>
<g>
</g>
<g>
</g>
<g>
</g>
<g>
</g>
<g>
</g>
<g>
</g>
<g>
</g>
<g>
</g>
<g>
</g>
<g>
</g>
<g>
</g>
<g>
</g>
<g>
</g>
<g>
</g>
</svg>
